# Blender v3.2.2 OBJ File: ''
# www.blender.org
mtllib teamotupodes.mtl
o Curve
v -0.120846 0.020274 0.000000
v -0.086464 0.001088 0.000000
v -0.067612 -0.000918 -0.000000
v 0.067648 -0.000918 -0.000000
v 0.086490 0.001088 0.000000
v 0.120864 0.020276 0.000000
v 0.048762 0.001784 0.000000
v 0.142318 0.058158 0.000000
v 0.030774 0.009014 0.000000
v 0.134348 0.037936 0.000000
v -0.016516 0.018972 0.000000
v -0.142304 0.058158 0.000000
v -0.030734 0.009014 0.000000
v 0.015208 0.020026 0.000000
v -0.048718 0.001784 0.000000
v -0.134330 0.037936 0.000000
v 0.144662 0.079590 0.000000
v 0.000008 0.035632 0.000000
v 0.126446 0.129152 0.000000
v 0.104360 0.007956 0.000000
v -0.104342 0.007956 0.000000
v -0.141362 0.100910 0.000000
v -0.144654 0.079588 0.000000
v 0.141358 0.100910 0.000000
v 0.135074 0.115852 0.000000
v -0.135090 0.115852 0.000000
v -0.126424 0.129226 0.000000
v 0.011062 0.248304 0.000000
v -0.010376 0.249000 0.000000
v 0.005710 0.251126 0.000000
v -0.001198 0.252192 0.000000
v -0.120846 0.020274 -0.031988
v -0.067612 -0.000918 -0.031988
v -0.086464 0.001088 -0.031988
v 0.067648 -0.000918 -0.031988
v 0.120864 0.020276 -0.031988
v 0.086490 0.001088 -0.031988
v 0.048762 0.001784 -0.031988
v 0.142318 0.058158 -0.031988
v 0.134348 0.037936 -0.031988
v 0.030774 0.009014 -0.031988
v -0.016516 0.018972 -0.031988
v -0.030734 0.009014 -0.031988
v -0.142304 0.058158 -0.031988
v 0.015208 0.020026 -0.031988
v -0.134330 0.037936 -0.031988
v -0.048718 0.001784 -0.031988
v 0.144662 0.079590 -0.031988
v 0.000008 0.035632 -0.031988
v 0.126446 0.129152 -0.031988
v 0.104360 0.007956 -0.031988
v -0.104342 0.007956 -0.031988
v -0.144654 0.079588 -0.031988
v -0.141362 0.100910 -0.031988
v 0.141358 0.100910 -0.031988
v 0.135074 0.115852 -0.031988
v -0.135090 0.115852 -0.031988
v -0.126424 0.129226 -0.031988
v 0.011062 0.248304 -0.031988
v -0.010376 0.249000 -0.031988
v 0.005710 0.251126 -0.031988
v -0.001198 0.252192 -0.031988
vt 0.390679 0.000000
vt 0.349064 0.000000
vt 0.328215 0.000000
vt 0.057201 0.000000
vt 0.036353 0.000000
vt 0.505438 0.000000
vt 0.078088 0.000000
vt 0.963606 0.000000
vt 0.098975 0.000000
vt 0.984461 0.000000
vt 0.268166 0.000000
vt 0.432227 0.000000
vt 0.286439 0.000000
vt 0.118998 0.000000
vt 0.307327 0.000000
vt 0.411372 0.000000
vt 0.942702 0.000000
vt 0.250000 0.000000
vt 0.891382 0.000000
vt 0.015571 0.000000
vt 0.369848 0.000000
vt 0.474031 0.000000
vt 0.453131 0.000000
vt 0.921803 0.000000
vt 0.906250 0.000000
vt 0.489583 0.000000
vt 0.504537 0.000000
vt 0.750283 0.000000
vt 0.649817 0.000000
vt 0.723996 0.000000
vt 0.692680 0.000000
vt 0.390679 0.000000
vt 0.328215 0.000000
vt 0.349064 0.000000
vt 0.057201 0.000000
vt 0.505438 0.000000
vt 0.036353 0.000000
vt 0.078088 0.000000
vt 0.963606 0.000000
vt 0.984461 0.000000
vt 0.098975 0.000000
vt 0.268166 0.000000
vt 0.286439 0.000000
vt 0.432227 0.000000
vt 0.118998 0.000000
vt 0.411372 0.000000
vt 0.307327 0.000000
vt 0.942702 0.000000
vt 0.250000 0.000000
vt 0.891382 0.000000
vt 0.015571 0.000000
vt 0.369848 0.000000
vt 0.453131 0.000000
vt 0.474031 0.000000
vt 0.921803 0.000000
vt 0.906250 0.000000
vt 0.489583 0.000000
vt 0.504537 0.000000
vt 0.750283 0.000000
vt 0.649817 0.000000
vt 0.723996 0.000000
vt 0.692680 0.000000
vn -0.0000 -0.0000 1.0000
vn -0.0000 0.0000 -1.0000
vn 0.1416 -0.9899 -0.0000
vn -0.8392 0.5438 0.0000
vn -0.3586 -0.9335 -0.0000
vn -0.3729 -0.9279 -0.0000
vn -0.9303 -0.3668 -0.0000
vn 0.9303 -0.3667 -0.0000
vn 0.3730 -0.9278 -0.0000
vn 0.7100 -0.7042 -0.0000
vn -0.9940 -0.1090 0.0000
vn 0.7184 0.6957 0.0000
vn -0.5981 -0.8014 -0.0000
vn 0.9941 -0.1087 0.0000
vn -0.7948 -0.6068 -0.0000
vn -0.7182 0.6958 0.0000
vn -0.9883 0.1526 0.0000
vn 0.5982 -0.8013 -0.0000
vn 0.1059 -0.9944 -0.0000
vn 0.7948 -0.6069 -0.0000
vn 0.4664 0.8846 0.0000
vn 0.9882 0.1531 0.0000
vn -0.1058 -0.9944 -0.0000
vn -0.3285 0.9445 0.0000
vn 0.5737 -0.8191 -0.0000
vn 0.9218 0.3877 0.0000
vn -0.1416 -0.9899 -0.0000
vn 0.3587 -0.9334 -0.0000
vn 0.1525 0.9883 0.0000
vn -0.5775 -0.8164 -0.0000
vn -0.9221 0.3870 0.0000
vn -0.7164 -0.6977 -0.0000
vn 0.8389 0.5442 0.0000
usemtl SVGMat
s 1
f 1/1/1 2/2/1 3/3/1
f 4/4/1 5/5/1 6/6/1
f 4/4/1 6/6/1 7/7/1
f 8/8/1 9/9/1 10/10/1
f 9/9/1 7/7/1 10/10/1
f 11/11/1 12/12/1 13/13/1
f 14/14/1 9/9/1 8/8/1
f 1/1/1 15/15/1 16/16/1
f 17/17/1 14/14/1 8/8/1
f 15/15/1 1/1/1 3/3/1
f 18/18/1 14/14/1 19/19/1
f 20/20/1 6/6/1 5/5/1
f 13/13/1 12/12/1 16/16/1
f 2/2/1 1/1/1 21/21/1
f 11/11/1 22/22/1 23/23/1
f 24/24/1 25/25/1 14/14/1
f 11/11/1 26/26/1 22/22/1
f 11/11/1 27/27/1 26/26/1
f 17/17/1 24/24/1 14/14/1
f 18/18/1 27/27/1 11/11/1
f 25/25/1 19/19/1 14/14/1
f 10/10/1 7/7/1 6/6/1
f 16/16/1 15/15/1 13/13/1
f 18/18/1 28/28/1 27/27/1
f 11/11/1 23/23/1 12/12/1
f 19/19/1 28/28/1 18/18/1
f 29/29/1 27/27/1 28/28/1
f 29/29/1 28/28/1 30/30/1
f 31/31/1 29/29/1 30/30/1
f 32/32/2 33/33/2 34/34/2
f 35/35/2 36/36/2 37/37/2
f 35/35/2 38/38/2 36/36/2
f 39/39/2 40/40/2 41/41/2
f 41/41/2 40/40/2 38/38/2
f 42/42/2 43/43/2 44/44/2
f 45/45/2 39/39/2 41/41/2
f 32/32/2 46/46/2 47/47/2
f 48/48/2 39/39/2 45/45/2
f 47/47/2 33/33/2 32/32/2
f 49/49/2 50/50/2 45/45/2
f 51/51/2 37/37/2 36/36/2
f 43/43/2 46/46/2 44/44/2
f 34/34/2 52/52/2 32/32/2
f 42/42/2 53/53/2 54/54/2
f 55/55/2 45/45/2 56/56/2
f 42/42/2 54/54/2 57/57/2
f 42/42/2 57/57/2 58/58/2
f 48/48/2 45/45/2 55/55/2
f 49/49/2 42/42/2 58/58/2
f 56/56/2 45/45/2 50/50/2
f 40/40/2 36/36/2 38/38/2
f 46/46/2 43/43/2 47/47/2
f 49/49/2 58/58/2 59/59/2
f 42/42/2 44/44/2 53/53/2
f 50/50/2 49/49/2 59/59/2
f 60/60/2 59/59/2 58/58/2
f 60/60/2 61/61/2 59/59/2
f 62/62/2 61/61/2 60/60/2
f 15/15/3 3/3/3 33/33/3 47/47/3
f 26/26/4 27/27/4 58/58/4 57/57/4
f 2/2/5 21/21/5 52/52/5 34/34/5
f 7/7/6 9/9/6 41/41/6 38/38/6
f 16/16/7 12/12/7 44/44/7 46/46/7
f 8/8/8 10/10/8 40/40/8 39/39/8
f 13/13/9 15/15/9 47/47/9 43/43/9
f 18/18/10 11/11/10 42/42/10 49/49/10
f 12/12/11 23/23/11 53/53/11 44/44/11
f 28/28/12 19/19/12 50/50/12 59/59/12
f 21/21/13 1/1/13 32/32/13 52/52/13
f 17/17/14 8/8/14 39/39/14 48/48/14
f 1/1/15 16/16/15 46/46/15 32/32/15
f 27/27/16 29/29/16 60/60/16 58/58/16
f 23/23/17 22/22/17 54/54/17 53/53/17
f 6/6/18 20/20/18 51/51/18 36/36/18
f 5/5/19 4/4/19 35/35/19 37/37/19
f 10/10/20 6/6/20 36/36/20 40/40/20
f 30/30/21 28/28/21 59/59/21 61/61/21
f 24/24/22 17/17/22 48/48/22 55/55/22
f 3/3/23 2/2/23 34/34/23 33/33/23
f 29/29/24 31/31/24 62/62/24 60/60/24
f 11/11/25 13/13/25 43/43/25 42/42/25
f 25/25/26 24/24/26 55/55/26 56/56/26
f 4/4/27 7/7/27 38/38/27 35/35/27
f 20/20/28 5/5/28 37/37/28 51/51/28
f 31/31/29 30/30/29 61/61/29 62/62/29
f 9/9/30 14/14/30 45/45/30 41/41/30
f 22/22/31 26/26/31 57/57/31 54/54/31
f 14/14/32 18/18/32 49/49/32 45/45/32
f 19/19/33 25/25/33 56/56/33 50/50/33
